<svg xmlns="http://www.w3.org/2000/svg" viewBox="0 0 1200 800" role="img" aria-label="Abstract Indian city finance dashboard">
  <defs>
    <linearGradient id="sky" x1="0" x2="1" y1="0" y2="1">
      <stop offset="0" stop-color="#12396f"/>
      <stop offset="0.56" stop-color="#0a1d3d"/>
      <stop offset="1" stop-color="#0f7d78"/>
    </linearGradient>
    <linearGradient id="card" x1="0" x2="1" y1="0" y2="1">
      <stop offset="0" stop-color="#ffffff" stop-opacity=".22"/>
      <stop offset="1" stop-color="#ffffff" stop-opacity=".05"/>
    </linearGradient>
  </defs>
  <rect width="1200" height="800" fill="url(#sky)"/>
  <path d="M0 610 C150 540 285 585 415 525 C560 458 690 520 820 455 C965 383 1082 420 1200 350 L1200 800 L0 800 Z" fill="#20b8a6" opacity=".22"/>
  <path d="M0 684 C165 604 284 642 436 585 C590 528 744 590 900 510 C1038 438 1135 455 1200 420 L1200 800 L0 800 Z" fill="#f4a51c" opacity=".18"/>
  <g opacity=".36">
    <rect x="72" y="392" width="78" height="250" fill="#ffffff" opacity=".16"/>
    <rect x="180" y="318" width="95" height="324" fill="#ffffff" opacity=".13"/>
    <rect x="312" y="360" width="70" height="282" fill="#ffffff" opacity=".18"/>
    <rect x="410" y="278" width="118" height="364" fill="#ffffff" opacity=".12"/>
    <rect x="556" y="338" width="84" height="304" fill="#ffffff" opacity=".16"/>
    <rect x="675" y="250" width="132" height="392" fill="#ffffff" opacity=".11"/>
    <rect x="840" y="372" width="78" height="270" fill="#ffffff" opacity=".16"/>
    <rect x="950" y="292" width="108" height="350" fill="#ffffff" opacity=".12"/>
  </g>
  <g opacity=".58">
    <rect x="720" y="95" width="330" height="210" rx="26" fill="url(#card)" stroke="#fff" stroke-opacity=".18"/>
    <path d="M760 245 L815 198 L870 218 L925 160 L1005 126" fill="none" stroke="#8ff2e8" stroke-width="12" stroke-linecap="round" stroke-linejoin="round"/>
    <circle cx="760" cy="245" r="10" fill="#8ff2e8"/>
    <circle cx="815" cy="198" r="10" fill="#8ff2e8"/>
    <circle cx="870" cy="218" r="10" fill="#8ff2e8"/>
    <circle cx="925" cy="160" r="10" fill="#8ff2e8"/>
    <circle cx="1005" cy="126" r="10" fill="#8ff2e8"/>
  </g>
  <g opacity=".5">
    <rect x="140" y="110" width="420" height="78" rx="22" fill="url(#card)" stroke="#fff" stroke-opacity=".15"/>
    <rect x="176" y="138" width="150" height="16" rx="8" fill="#ffffff" opacity=".38"/>
    <rect x="350" y="138" width="150" height="16" rx="8" fill="#20b8a6" opacity=".7"/>
  </g>
  <g fill="none" stroke="#fff" stroke-opacity=".16">
    <path d="M80 92 H1120"/>
    <path d="M80 196 H1120"/>
    <path d="M80 300 H1120"/>
    <path d="M80 404 H1120"/>
    <path d="M80 508 H1120"/>
    <path d="M200 60 V700"/>
    <path d="M400 60 V700"/>
    <path d="M600 60 V700"/>
    <path d="M800 60 V700"/>
    <path d="M1000 60 V700"/>
  </g>
</svg>
